<?xml version="1.0" encoding="utf-8"?>
<!-- Generator: Adobe Illustrator 24.0.1, SVG Export Plug-In . SVG Version: 6.00 Build 0)  -->
<svg version="1.1" xmlns="http://www.w3.org/2000/svg" x="0px" y="0px"
     viewBox="0 0 114.7 116.1" style="enable-background:new 0 0 114.7 116.1;" xml:space="preserve">
<style type="text/css">
	.st0{fill:#9DC02E;}
	.st1{fill:#779324;}
</style>
    <g id="_BACKGROUND">
</g>
    <g id="OBJECTS">
	<g>
		<path class="st0" d="M24.7,58c0,24.7,13.3,29.5,33.2,41.2C77.8,87.5,91.1,82.7,91.1,58S77.8,11.7,57.9,0
			C38.1,11.7,24.7,33.3,24.7,58z"/>
        <polygon class="st1" points="61.9,60.1 81,29.7 61.9,48.8 57.9,20.7 53.9,48.8 34.9,29.7 53.9,60.1 53.9,80.6 34.9,61.5
			53.9,91.9 53.9,116.1 61.9,116.1 61.9,91.9 81,61.5 61.9,80.6 		"/>
        <g>
			<path class="st0" d="M87.1,91.9c0,10.3,5.5,12.3,13.8,17.1c8.3-4.9,13.8-6.9,13.8-17.1s-5.5-19.3-13.8-24.1
				C92.6,72.7,87.1,81.7,87.1,91.9z"/>
            <polygon class="st1" points="102.6,92.8 110.5,80.1 102.6,88.1 100.9,76.4 99.2,88.1 91.3,80.1 99.2,92.8 99.2,101.3 91.3,93.4
				99.2,106 99.2,116.1 102.6,116.1 102.6,106 110.5,93.4 102.6,101.3 			"/>
		</g>
        <g>
			<path class="st0" d="M0,91.9c0,10.3,5.5,12.3,13.8,17.1c8.3-4.9,13.8-6.9,13.8-17.1s-5.5-19.3-13.8-24.1C5.5,72.7,0,81.7,0,91.9z
				"/>
            <polygon class="st1" points="15.5,92.8 23.4,80.1 15.5,88.1 13.8,76.4 12.2,88.1 4.2,80.1 12.2,92.8 12.2,101.3 4.2,93.4
				12.2,106 12.2,116.1 15.5,116.1 15.5,106 23.4,93.4 15.5,101.3 			"/>
		</g>
	</g>
</g>
    <g id="DESIGNED_BY_FREEPIK">
</g>
</svg>
