<?xml version="1.0" standalone="no"?>
<!DOCTYPE svg PUBLIC "-//W3C//DTD SVG 20010904//EN"
    "http://www.w3.org/TR/2001/REC-SVG-20010904/DTD/svg10.dtd">
<svg version="1.0" xmlns="http://www.w3.org/2000/svg"
     width="1160.000000pt" height="1160.000000pt" viewBox="0 0 1160.000000 1160.000000"
     preserveAspectRatio="xMidYMid meet">
    <metadata>
        Created by potrace 1.11, written by Peter Selinger 2001-2013
    </metadata>
    <g transform="translate(0.000000,1160.000000) scale(0.100000,-0.100000)"
       fill="#000000" stroke="none">
        <path d="M5773 11555 c-225 -136 -522 -345 -738 -519 -291 -235 -631 -564
-870 -841 -33 -39 -63 -72 -66 -75 -17 -15 -217 -272 -295 -380 -147 -204
-308 -455 -414 -645 -18 -33 -42 -76 -53 -95 -81 -145 -262 -531 -331 -707
-115 -294 -248 -704 -280 -863 -3 -14 -17 -74 -31 -135 -14 -60 -28 -119 -29
-130 -2 -11 -7 -36 -10 -55 -4 -19 -15 -82 -26 -140 -11 -58 -22 -125 -26
-150 -3 -25 -7 -56 -9 -70 -2 -13 -7 -47 -10 -75 -4 -27 -8 -61 -10 -75 -3
-14 -7 -52 -10 -85 -3 -33 -8 -78 -10 -100 -6 -62 -17 -213 -21 -285 -5 -102
-5 -536 0 -630 8 -137 17 -263 21 -290 2 -14 7 -50 10 -80 7 -59 31 -226 40
-275 27 -143 106 -445 134 -510 5 -11 26 -62 46 -114 134 -345 347 -670 626
-951 136 -137 184 -181 339 -306 180 -145 489 -360 681 -474 14 -8 111 -66
215 -128 104 -62 196 -117 204 -122 8 -5 95 -56 193 -112 98 -57 186 -108 195
-113 9 -6 61 -34 115 -64 l97 -55 0 -953 0 -953 400 0 c220 0 400 3 400 8 1 4
1 433 2 953 l0 945 122 70 c66 38 213 122 326 187 113 66 225 130 248 144 56
31 266 158 312 188 19 12 60 38 90 57 584 371 939 678 1216 1050 227 305 391
663 483 1052 46 195 53 228 67 336 2 19 6 46 9 60 2 14 7 48 10 75 3 28 7 68
10 90 6 55 16 180 21 273 5 101 5 513 0 622 -6 118 -16 258 -21 300 -2 19 -7
68 -11 109 -3 41 -8 83 -10 94 -2 11 -6 45 -10 76 -3 31 -8 58 -9 61 -2 3 -6
34 -10 70 -4 36 -9 68 -10 71 -2 3 -7 28 -10 55 -8 61 -68 350 -90 436 -10 34
-19 71 -20 81 -2 10 -14 52 -25 95 -12 42 -23 84 -25 92 -4 19 -47 155 -91
288 -48 144 -109 306 -166 442 -11 25 -23 54 -28 65 -271 643 -678 1283 -1168
1835 -141 158 -510 519 -642 627 -14 12 -46 38 -71 59 -68 58 -114 95 -220
176 -128 98 -128 98 -259 188 -63 44 -120 84 -127 90 -7 5 -14 10 -17 10 -2 0
-39 23 -80 50 -42 28 -80 50 -86 50 -5 0 -10 5 -10 10 0 6 -5 10 -10 10 -6 0
-28 11 -50 25 -22 14 -41 25 -42 24 -2 0 -35 -20 -75 -44z"/>
        <path d="M1322 4746 c-416 -278 -729 -623 -954 -1056 -30 -58 -67 -136 -83
-175 -16 -38 -32 -74 -37 -79 -4 -6 -8 -16 -8 -24 0 -8 -7 -28 -15 -45 -13
-30 -78 -239 -90 -289 -7 -33 -25 -119 -30 -148 -3 -14 -7 -35 -9 -47 -3 -11
-7 -43 -11 -70 -4 -26 -8 -59 -10 -72 -9 -57 -18 -236 -18 -351 0 -446 108
-760 350 -1016 50 -54 130 -125 178 -159 16 -11 33 -25 40 -31 37 -37 337
-224 568 -354 l77 -44 0 -393 0 -393 168 2 167 3 0 389 0 389 45 27 c25 15
117 69 205 120 152 88 369 226 397 253 7 7 39 32 71 56 31 24 95 83 141 131
204 215 300 431 344 777 9 75 9 425 0 528 -7 68 -32 232 -53 340 -29 152 -119
409 -207 595 -70 147 -206 375 -275 460 -6 8 -42 53 -80 100 -95 120 -299 323
-423 420 -88 70 -320 230 -333 230 -2 0 -54 -33 -115 -74z"/>
        <path d="M10069 4773 c-83 -52 -268 -189 -344 -255 -260 -226 -505 -539 -650
-827 -51 -102 -97 -202 -115 -251 -7 -19 -18 -48 -25 -65 -13 -31 -59 -182
-88 -290 -18 -65 -52 -242 -62 -315 -20 -160 -26 -428 -12 -590 6 -82 14 -129
41 -255 42 -193 163 -411 310 -559 164 -164 285 -251 647 -461 101 -59 189
-111 195 -116 8 -7 11 -122 10 -399 l-1 -390 168 0 c92 0 167 3 167 8 1 4 1
181 1 393 1 386 1 387 22 397 93 47 419 243 532 320 147 100 194 138 298 245
210 214 319 461 354 801 14 135 8 458 -11 586 -2 14 -6 50 -10 80 -4 30 -11
71 -16 90 -5 19 -11 51 -14 70 -3 19 -13 62 -21 95 -8 33 -17 68 -20 78 -8 35
-87 262 -108 311 -187 442 -489 840 -852 1125 -44 34 -87 68 -95 74 -23 19
-182 123 -206 135 -17 9 -32 3 -95 -35z"/>
    </g>
</svg>
